# xmcd CD database file
#
# Track frame offsets:
#	182
#	12862
#	22915
#	36275
#	51320
#	67085
#	83537
#	96635
#	108125
#	120475
#	132332
#	144102
#	156157
#	176435
#
# Disc length: 2551 seconds
#
# Revision: 5
# Processed by: cddbd v1.5.2PL0 Copyright (c) Steve Scherf et al.
# Submitted via: CDex 1.70beta2
#
DISCID=b009f50e
DTITLE=Georgie Fame - get away with ...
DYEAR=1964
DGENRE=Pop
TTITLE0=Yeh Yeh
TTITLE1=Green Onions
TTITLE2=Let The Good Times Roll
TTITLE3=Sitting In The Park
TTITLE4=Funny How Time Slips Away
TTITLE5=Shop Around
TTITLE6=Baby Please Don't Go
TTITLE7=Get Away
TTITLE8=Eso Beso
TTITLE9=In The Meantime
TTITLE10=Sunny
TTITLE11=Ride Your Pony
TTITLE12=Night Train
TTITLE13=I Love The Life I Live
EXTD=YEAR: 1964
EXTT0=
EXTT1=
EXTT2=
EXTT3=
EXTT4=
EXTT5=
EXTT6=
EXTT7=
EXTT8=
EXTT9=
EXTT10=
EXTT11=
EXTT12=
EXTT13=
PLAYORDER=
